<svg viewBox="0 0 1239 818" xmlns="http://www.w3.org/2000/svg">
  <style>
    #background-circle {
      fill: black; /* Default: Light mode */
    }
    @media (prefers-color-scheme: dark) {
      #background-circle {
        fill: white; /* Dark mode */
      }
    }
  </style>

  <!-- Round Background -->
  <circle id="background-circle" cx="619.5" cy="409" r="650" />

  <!-- Original Glyph Paths (Simplified Structure) -->

  <!-- Paths for '<' and '>' (#DC765D) -->
  <g fill="#DC765D">
    <path d="M1110.866455,391.090942 C1058.367432,368.315155 1006.230103,345.654205 953.834473,322.880981 C962.433472,302.971832 970.791931,283.619446 979.299438,263.922150 C991.704895,269.708313 1003.717957,275.330658 1015.746887,280.918732 C1074.888062,308.392975 1134.013794,335.900513 1193.218018,363.238190 C1197.486572,365.209229 1199.032104,367.587891 1198.954346,372.309662 C1198.666504,389.798218 1198.734009,407.295471 1198.919800,424.786774 C1198.961426,428.700775 1197.598022,430.713287 1194.059937,432.350677 C1124.455933,464.563049 1054.907349,496.895142 985.341064,529.189270 C983.562195,530.015076 981.711975,530.687378 979.382019,531.641357 C970.826294,512.537109 962.423218,493.773682 953.744690,474.395172 C1011.082336,449.111786 1068.079834,423.978333 1126.514648,398.211121 C1120.656494,395.526459 1115.942505,393.366119 1110.866455,391.090942 z"/>
    <path d="M122.154434,336.201996 C173.942688,312.131622 225.387726,288.216492 276.837860,264.312256 C276.960876,264.255096 277.158936,264.359375 278.049408,264.517090 C286.252930,283.481049 294.619141,302.821167 303.291504,322.868927 C245.977844,347.782440 188.911362,372.588531 131.844879,397.394592 C131.907852,397.875549 131.970810,398.356476 132.033783,398.837402 C188.898468,423.916443 245.763138,448.995483 303.256653,474.351837 C299.832062,482.137146 296.605255,489.539490 293.323334,496.917297 C288.927795,506.798431 284.258087,516.566101 280.172699,526.572937 C278.284576,531.197693 276.267609,531.448364 272.018829,529.443481 C241.769516,515.169800 211.401566,501.147583 181.072830,487.042206 C141.839600,468.795563 102.639244,450.477417 63.323837,432.409576 C59.613827,430.704590 58.624203,428.713165 58.655167,424.901672 C58.805408,406.406281 58.788799,387.907135 58.547592,369.413025 C58.501137,365.851440 60.469917,364.915558 62.972984,363.754700 C82.599632,354.652161 102.201675,345.496582 122.154434,336.201996 z"/>
  </g>

  <!-- Path for '/' (#6F98E8) -->
  <g fill="#6F98E8">
      <path d="M919.601318,154.598572 C902.970032,218.616577 886.480225,282.246643 870.000305,345.879242 C847.004822,434.670013 824.018127,523.463074 801.024292,612.254211 C797.537109,625.719910 794.031311,639.180725 790.266541,653.673767 C769.889832,648.802979 749.700012,643.976868 728.992310,639.026978 C773.835083,466.487854 818.551941,294.433258 863.469055,121.608078 C883.632080,126.181770 903.599487,130.711075 924.354614,135.419083 C922.780884,141.837860 921.264099,148.024811 919.601318,154.598572 z"/>
  </g>

  <!-- Paths for 'B' background/outline (#818181) -->
  <g fill="#818181">
    <path d="M476.000061,189.349976 C498.639130,189.897446 520.832520,189.660278 542.903625,191.189362 C570.832764,193.124298 597.882263,199.441391 622.454285,213.594086 C651.757263,230.471695 665.992859,256.536346 667.696045,289.875458 C669.602234,327.187683 654.285156,355.565948 623.010315,375.604187 C621.364136,376.658875 619.712769,377.705292 617.826538,378.906708 C625.375671,382.691437 632.669922,386.095520 639.729248,389.932007 C667.957397,405.272858 681.525269,429.793518 684.049438,461.183502 C685.696533,481.666901 684.125427,501.747589 676.763794,521.114746 C668.090698,543.932007 652.363953,560.481079 631.108459,572.003906 C610.897705,582.960327 588.987183,588.503723 566.348755,590.789490 C548.985107,592.542664 531.487793,593.501160 514.035461,593.734680 C480.551514,594.182861 447.057312,593.865112 413.567352,593.865112 C411.743317,593.865112 409.919312,593.865112 407.470184,593.865112 C407.376556,591.884949 407.221619,590.136230 407.221466,588.387573 C407.210266,457.260223 407.238434,326.132812 407.102081,195.005600 C407.097137,190.244797 408.567566,189.209885 413.020081,189.255295 C433.844879,189.467743 454.673065,189.349670 476.000061,189.349976 z M478.107483,513.499634 C478.107483,519.945129 478.107483,526.390625 478.107483,532.941833 C479.674469,533.123840 480.640167,533.332947 481.606079,533.333923 C498.756256,533.351562 515.911621,533.605347 533.055115,533.266724 C549.570068,532.940613 565.857727,530.865784 581.487854,524.981812 C595.786194,519.599121 605.096130,509.825745 608.648376,494.866028 C611.974548,480.858521 611.926025,466.843994 608.130554,452.924744 C604.792053,440.681519 597.836548,431.276031 586.792908,424.629974 C572.669006,416.130127 557.195557,412.643250 541.113953,412.139771 C521.317993,411.520050 501.490448,411.903442 481.676514,411.885742 C480.584106,411.884766 479.491425,412.180695 478.107574,412.380524 C478.107574,445.944641 478.107574,479.222229 478.107483,513.499634 z M502.500000,353.136780 C513.322815,353.090851 524.148560,353.184326 534.967712,352.960846 C546.428894,352.724091 557.275269,349.829315 567.653503,344.937042 C599.481018,329.933685 600.191589,296.395325 591.143616,275.669189 C584.607971,260.697968 570.514465,256.197876 556.130798,253.049698 C531.011536,247.551743 505.455231,249.171356 480.018738,249.058029 C479.428925,249.055405 478.837341,249.452911 478.386841,249.613693 C478.386841,284.112366 478.386841,318.354523 478.386841,353.136932 C486.270874,353.136932 493.885437,353.136932 502.500000,353.136780 z"/>
  </g>
</svg>
